<?xml version="1.0" standalone="no"?>
<!DOCTYPE svg PUBLIC "-//W3C//DTD SVG 20010904//EN"
 "http://www.w3.org/TR/2001/REC-SVG-20010904/DTD/svg10.dtd">
<svg version="1.0" xmlns="http://www.w3.org/2000/svg"
 width="512.000000pt" height="512.000000pt" viewBox="0 0 512.000000 512.000000"
 preserveAspectRatio="xMidYMid meet">

<g transform="translate(0.000000,512.000000) scale(0.100000,-0.100000)"
fill="rgb(255, 90, 79)" stroke="none">
<path d="M1585 4308 l-530 -9 -54 -27 c-42 -21 -60 -37 -78 -71 l-23 -44 0
-1249 c0 -1024 2 -1254 13 -1281 14 -33 318 -394 365 -435 55 -46 51 -46 821
28 398 39 739 70 758 70 30 0 130 -40 808 -327 428 -181 410 -175 503 -148
l52 16 0 1497 c0 1431 -1 1499 -19 1537 -22 50 -69 91 -119 105 -27 8 -996
130 -1030 130 -2 0 -2 11 0 25 3 14 0 31 -6 39 -6 8 -146 45 -321 85 l-310 71
-150 -2 c-82 -1 -388 -5 -680 -10z m1039 -89 c121 -27 222 -52 225 -55 2 -2
-21 -4 -51 -4 -31 0 -358 -9 -729 -20 -542 -17 -678 -23 -695 -35 -20 -13 -36
-9 -190 55 -150 61 -166 70 -144 78 21 8 476 19 1244 30 110 2 134 -2 340 -49z
m-1469 -102 c94 -40 169 -75 168 -80 -2 -4 -3 -638 -3 -1408 0 -1310 -1 -1401
-17 -1388 -33 28 -335 385 -344 407 -13 33 -12 2483 1 2516 5 14 13 26 17 25
5 0 85 -33 178 -72z m1845 -6 c0 -4 -27 -11 -59 -14 -75 -6 -81 -10 -81 -51
l0 -34 -162 -6 c-90 -3 -388 -11 -663 -17 -553 -12 -548 -11 -592 -78 -21 -31
-23 -45 -23 -175 0 -78 -5 -639 -11 -1248 -11 -1224 -14 -1157 53 -1198 20
-12 51 -20 76 -20 24 0 303 27 621 60 l578 60 49 -22 c39 -18 45 -23 27 -26
-71 -11 -1429 -139 -1435 -135 -10 5 -10 2161 -1 2557 6 255 8 288 23 296 9 5
183 14 386 20 722 23 1179 37 1197 39 9 0 17 -3 17 -8z m550 -122 c337 -41
516 -67 539 -78 19 -9 44 -29 55 -44 21 -28 21 -29 21 -1515 l0 -1487 -45 -9
c-43 -8 -56 -4 -208 59 -89 37 -165 71 -167 75 -2 4 35 10 83 13 75 4 98 2
166 -20 43 -13 82 -21 87 -16 10 10 17 426 25 1399 5 706 4 752 -12 758 -10 4
-21 3 -26 -2 -4 -4 -12 -478 -18 -1052 -5 -575 -10 -1046 -10 -1047 0 -2 -21
5 -47 15 l-48 17 3 320 c2 176 7 678 12 1115 12 987 14 1370 7 1376 -2 3 -231
34 -508 69 -277 36 -514 68 -526 70 -25 6 -31 30 -10 38 32 14 161 3 627 -54z
m-692 -41 c-3 -7 -33 -19 -69 -28 l-64 -16 -3 -377 c-1 -207 -3 -377 -5 -377
-123 -6 -1125 -40 -1174 -40 l-73 0 0 379 0 380 24 28 c28 33 -48 28 721 47
696 18 647 18 643 4z m285 -22 c98 -13 180 -26 183 -28 2 -3 -36 -23 -86 -46
l-90 -41 0 -246 0 -245 -22 5 c-13 3 -88 18 -168 35 -80 17 -155 32 -168 35
l-22 5 2 232 3 232 65 16 c58 14 65 19 68 43 4 34 3 34 235 3z m515 -67 c100
-12 179 -26 175 -30 -5 -4 -44 -23 -89 -43 l-80 -35 -187 28 c-103 15 -189 30
-192 32 -7 8 159 78 175 74 8 -2 97 -14 198 -26z m261 -316 c-1 -506 -26
-2473 -32 -2479 -6 -7 -237 -27 -242 -22 -2 2 -7 93 -12 202 l-8 200 75 58
c41 33 85 68 98 79 l22 19 0 393 c0 292 -3 396 -12 405 -7 7 -40 12 -76 12
l-64 0 6 243 c3 133 9 425 12 649 l6 406 102 45 c55 25 107 46 114 46 9 1 12
-56 11 -256z m-284 156 c6 -7 -13 -1270 -20 -1277 -2 -2 -192 49 -422 115
l-418 119 -3 348 c-2 328 -1 347 15 342 10 -3 103 -23 207 -45 141 -30 193
-38 203 -30 10 9 13 65 13 253 l0 243 209 -31 c115 -17 212 -34 216 -37z
m-915 -654 l0 -55 -37 0 c-21 0 -279 -9 -573 -20 -695 -25 -650 -26 -650 4 0
13 3 37 6 53 l6 29 576 21 c318 11 598 21 625 22 l47 1 0 -55z m2 -267 l3
-161 60 -17 60 -17 3 -226 c2 -202 1 -227 -13 -227 -9 0 -305 -22 -657 -50
-352 -28 -658 -50 -679 -50 l-39 0 0 430 c0 336 3 432 13 435 11 4 992 40
1174 44 l73 1 2 -162z m973 -421 l70 -2 3 -366 2 -366 -85 -66 c-47 -37 -88
-67 -92 -67 -13 0 -777 292 -786 300 -5 4 14 27 42 51 l51 44 0 341 0 341 363
-104 c289 -83 376 -105 432 -106z m-845 -337 c0 -54 -2 -60 -22 -64 -19 -4
-1336 -107 -1360 -106 -7 0 -12 118 -5 121 4 2 1321 107 1355 108 l32 1 0 -60z
m-73 -173 l-57 -52 0 -176 0 -176 -37 -6 c-21 -3 -289 -32 -596 -63 -396 -41
-566 -55 -585 -48 -47 16 -52 42 -52 262 0 153 3 204 13 207 15 5 1254 102
1322 103 l50 1 -58 -52z m398 -255 c290 -111 390 -154 395 -168 4 -10 10 -97
13 -192 6 -168 6 -173 -13 -167 -11 3 -195 88 -410 187 l-390 181 0 154 c0 84
4 153 8 153 5 0 183 -67 397 -148z"/>
<path d="M4065 3608 c-3 -8 -4 -75 -3 -149 3 -126 4 -134 23 -134 19 0 20 7
20 145 0 130 -2 145 -18 148 -9 2 -19 -3 -22 -10z"/>
</g>
</svg>
